<svg width="160" height="36" viewBox="0 0 160 36" fill="none" xmlns="http://www.w3.org/2000/svg">
<path d="M149.431 10.3371H152.783L152.763 15.6512H153.491L155.403 10.3371H159.03L156.427 17.3587L159.405 25.1298H155.481L153.551 19.1816H152.763L152.783 25.1298H149.431V10.3371ZM138.142 10.3371H141.472V15.6724H143.856V10.3379H147.186V25.1298H143.856V19.2013H141.472V25.1298H138.141L138.142 10.3371ZM126.534 25.1494H130.002L130.417 22.5918H132.799L133.215 25.1494H136.681L133.766 10.3592H129.469L126.534 25.1494ZM131.617 14.8379L132.248 19.3395H130.966L131.616 14.8379H131.617ZM117.231 25.1298H121.29C122.176 25.1298 125.862 24.7518 125.881 20.2698C125.881 16.5078 123.026 15.8516 121.173 15.8516H120.561V13.888H125.075V10.3379H117.231V25.1306V25.1298ZM120.561 22.1549V18.8053H121.054C121.467 18.8053 122.533 18.8241 122.533 20.3516C122.533 21.8996 121.467 22.1549 121.054 22.1549H120.562H120.561ZM104.008 10.3371H106.906L109.464 13.8274L112.049 10.3371H114.926V25.1298H111.514V16.1077L109.464 18.685L107.416 16.1077V25.1298H104.008V10.3371ZM96.9714 25.309C101.011 25.309 102.37 21.5003 102.37 17.7146C102.37 13.9289 101.011 10.1203 96.9714 10.1203C92.9314 10.1203 91.5731 13.9289 91.5731 17.7146C91.5731 21.5003 92.9314 25.309 96.9714 25.309ZM96.9714 21.7188C95.7673 21.7188 95.1589 20.3132 95.1589 17.7146C95.1589 15.1161 95.7673 13.7088 96.9714 13.7088C98.1756 13.7088 98.7831 15.1161 98.7831 17.7146C98.7831 20.3132 98.1748 21.7188 96.9714 21.7188ZM81.6973 25.1298H85.1073V20.2534H86.2514C89.6198 20.2534 90.6656 17.1983 90.6656 15.2527C90.6656 13.3504 89.4614 10.3371 86.2514 10.3371H81.6973V25.1298ZM85.1073 13.5893H85.9156C86.6839 13.5893 87.1773 14.0655 87.1773 15.2944C87.1773 16.8817 86.3481 16.9979 85.9156 16.9979H85.1073V13.5902V13.5893ZM70.4448 10.3371H79.7464V25.1298H76.3364V13.9068H73.8539V25.1298H70.4448V10.3371ZM63.4481 16.0693C63.9989 16.0693 65.0056 15.7117 65.0056 14.6211C65.0056 13.3341 63.8431 13.2523 63.5064 13.2523C63.1131 13.2523 62.3648 13.3136 61.6348 13.6703L61.5964 10.4557C62.7581 10.1595 63.5864 10.0793 64.5706 10.0793C67.3706 10.0793 68.6123 12.0438 68.6123 13.9657C68.6123 15.8312 67.5473 16.9586 66.5039 17.3955V17.5346C67.5089 17.8545 68.8481 18.8233 68.8481 21.0847C68.8481 23.8821 66.9181 25.4268 64.4339 25.4268C63.1131 25.4088 62.2456 25.2304 61.2006 24.6553L61.2614 21.5797C62.2264 21.9978 62.8764 22.0363 63.5281 22.0363C64.6314 22.0363 65.0639 21.2222 65.0639 20.6298C65.0639 19.7953 64.5323 19.2413 63.3698 19.2413H61.9898V16.0693H63.4481ZM50.0489 25.1298H53.4964L53.9306 22.5705H56.3156L56.7289 25.1298H60.1764L57.2598 10.3371H52.9639L50.0489 25.1298ZM55.1123 14.7994L55.7623 19.3207H54.4614L55.1114 14.7994H55.1123ZM43.4473 10.3371H50.4406V14.0246H46.9139V25.1298H43.4473V10.3371Z" fill="white"/>
<path d="M0.865 17.9009C0.865 27.0032 8.24 34.4127 17.305 34.4127C26.3525 34.4127 33.7225 26.9999 33.7225 17.9009C33.7225 8.78393 26.3558 1.36957 17.305 1.36957C8.23583 1.36957 0.865 8.78148 0.865 17.9009ZM0 17.9009C0 8.30039 7.75917 0.499023 17.305 0.499023C26.83 0.499023 34.5875 8.29957 34.5875 17.9001C34.5875 27.481 26.8292 35.2816 17.3042 35.2816C7.76 35.2824 0 27.481 0 17.9017V17.9009Z" fill="white"/>
<path d="M12.1462 6.91347C11.548 7.17694 10.9796 7.50136 10.4504 7.88138C14.5679 6.03719 19.5954 6.15747 22.2929 7.36756C23.1412 7.76356 23.7112 8.0041 23.9695 8.47701C21.1695 7.72265 19.967 7.58601 17.6237 7.6441C14.2904 7.70465 9.85703 9.03092 8.16203 10.0446L7.41703 10.9774C9.85703 9.52592 14.4104 8.57765 16.9345 8.49747C19.7529 8.45901 21.9387 8.71674 23.9504 9.44983C23.8304 9.96447 23.5745 10.2222 23.1412 10.4816C15.1004 9.07265 10.3495 10.7368 6.05453 13.5522L5.74036 14.4833C10.5295 11.1746 16.4004 10.2639 22.0579 11.2539C20.0287 11.9682 17.6045 12.1261 15.5745 12.599C13.8412 12.9966 12.9145 13.1169 10.6062 13.8917C8.26453 14.6649 6.88119 15.4569 6.01619 16.469C5.60203 16.9468 5.28619 17.4999 5.20619 18.0931C5.16953 18.4482 5.18869 18.7689 5.30786 19.0864C5.40286 19.3646 5.62036 19.6411 5.85786 19.9185C5.58286 20.393 5.34369 21.0107 5.74036 21.7242C5.91703 22.0596 6.37036 22.3967 6.80619 22.7166L6.68369 23.0701C6.62536 23.489 6.56703 23.9832 6.84369 24.3988C7.31453 25.1524 7.88619 25.6498 8.79369 26.1252C8.93202 26.7405 9.14703 27.2347 9.62036 27.6732C10.6254 28.6035 12.8737 30.3879 16.8729 30.6661C19.8695 30.8657 22.017 29.9527 22.8262 29.555L23.8112 29.0412C22.1362 29.7137 19.3195 30.1106 17.0112 29.9126C13.6612 29.6344 10.6679 27.4343 10.2929 26.7994C10.4095 26.8771 10.5679 26.9377 10.7037 26.9974C14.627 28.9005 19.6912 29.933 26.1754 27.2756L26.7104 26.7601C20.8145 28.6035 15.6537 28.5446 10.1137 25.631C10.1745 25.3528 10.2929 25.1115 10.547 24.9176C11.9645 25.5476 13.3262 26.0671 14.982 26.4017C16.9137 26.7601 19.1195 26.8403 20.9345 26.7601C22.7679 26.6807 26.3929 25.7685 28.1079 24.857C28.2645 24.7179 28.3429 24.4823 28.5004 24.3219C25.1529 25.5476 21.1695 26.1252 18.767 25.9452C16.4212 25.7685 14.3337 25.4895 11.5737 24.2213C12.1045 24.0045 12.657 23.8253 13.2079 23.6649C15.0212 24.2213 16.8729 24.5567 19.0604 24.6574C21.2304 24.7556 26.2937 23.9456 29.4854 22.0032C29.5862 21.725 29.6837 21.4256 29.6837 21.4256C29.6837 21.4256 25.2495 23.8065 20.2254 23.8065C17.8795 23.8065 16.4412 23.4686 15.3779 23.2108C17.7412 22.7747 20.7179 22.4172 24.0662 21.5655C25.7604 21.1277 27.8504 20.1353 28.797 19.304C29.6045 18.5685 30.2362 17.6169 30.0204 16.649C29.9779 16.388 29.6245 15.7768 29.1904 15.5567C29.6045 15.0216 29.5654 14.5651 29.5079 14.1716C29.4662 13.8688 29.3287 13.535 29.1537 13.2388C28.877 12.878 28.6187 12.599 28.0862 12.284C28.1679 11.8681 28.1127 11.4374 27.9287 11.0543C27.5154 10.3408 26.7679 9.72719 25.487 9.07265C25.4279 8.8141 25.2679 8.47701 24.9945 8.14074C23.3795 6.53465 20.737 5.76147 18.5095 5.72056C18.3845 5.7181 18.2604 5.71729 18.1387 5.71729C15.5329 5.71729 13.4412 6.30638 12.1462 6.91347ZM24.7579 10.8784C24.9562 10.6599 25.2495 10.3228 25.327 10.0446C25.8812 10.4022 26.5112 10.9373 26.5887 11.4928C25.9995 11.2719 25.3687 11.0379 24.7579 10.8792V10.8784ZM25.2495 13.2961C24.3054 13.0367 23.4779 12.7193 22.3712 12.5237C23.0437 12.2636 23.4945 11.9878 23.8912 11.6696C24.7745 11.906 25.6029 12.2055 26.277 12.5016C26.1604 12.6743 25.4854 13.3026 25.2804 13.3026C25.2697 13.3031 25.259 13.3009 25.2495 13.2961ZM26.9645 13.9899C27.2195 13.7911 27.457 13.5751 27.6745 13.3157C28.2054 13.7715 28.3629 14.0889 28.1079 14.5847C27.7545 14.3278 27.377 14.1879 26.9645 13.9899ZM6.72703 18.908C5.26619 16.8855 10.3304 15.4389 11.2979 15.1403C13.7604 14.4039 16.6395 13.8525 19.2412 13.535C21.0304 13.3157 21.9795 13.5162 23.6754 13.9711C19.3195 15.1411 15.0212 15.515 10.922 16.7259C7.61702 17.6914 6.74036 18.908 6.72703 18.908ZM7.80786 19.8784C9.34536 18.5685 12.4804 17.8362 13.6245 17.5785C17.2687 16.7848 20.6587 16.2898 22.0579 15.9339C23.7537 15.515 24.9362 15.1206 25.7604 14.7246C25.8004 14.6649 27.1404 15.3178 27.2787 15.4749C26.8262 15.8537 26.1979 16.172 25.5062 16.4076C23.437 17.162 19.6729 17.954 17.6837 18.2567C15.6729 18.5914 13.9945 18.8475 11.7712 19.4398C10.4879 19.7794 9.62036 20.1762 8.98953 20.5935C8.51703 20.3153 8.24119 20.2367 7.80786 19.8784ZM10.6679 21.4648C11.3162 21.1867 12.0262 20.9682 12.7137 20.7931C16.1837 19.9356 19.2412 19.7794 23.4579 18.6306C25.487 18.0931 26.9645 17.5171 27.892 16.8061C28.0287 16.685 28.167 16.5868 28.3054 16.469C29.527 18.3713 24.9362 19.8391 21.8004 20.5166C20.1611 20.8425 18.5185 21.1524 16.8729 21.446C14.8262 21.7831 14.1529 21.9623 12.7345 22.3787C12.0262 22.1006 11.3162 21.8027 10.6679 21.4648ZM6.97953 20.87C7.29619 21.0705 7.53119 21.23 7.90703 21.4256C7.76869 21.5442 7.59036 21.6645 7.45369 21.8019C7.14036 21.6219 6.82203 21.2292 6.97953 20.8692V20.87ZM8.61702 22.6946C8.81452 22.5162 9.06953 22.3386 9.34536 22.1611C9.93703 22.4393 10.547 22.6937 11.1187 22.9531C10.7338 23.0944 10.3647 23.2739 10.017 23.489C9.54632 23.2308 9.0796 22.9657 8.61702 22.6937V22.6946ZM8.10369 23.6649C8.43869 23.8842 8.77369 24.0617 9.11036 24.2417C8.97202 24.4406 8.87203 24.5968 8.81453 24.7973C8.32119 24.38 8.08286 24.0429 8.10369 23.6649Z" fill="white"/>
</svg>
