<svg width="170" height="35" viewBox="0 0 170 35" fill="none" xmlns="http://www.w3.org/2000/svg">
<path d="M14.8999 34.8186C13.2807 34.5878 10.5725 33.672 9.06234 32.8446C4.54128 30.3674 1.35231 26.0189 0.264063 20.8471C-0.0870449 19.1785 -0.0882162 15.8127 0.261733 14.1496C1.45699 8.46923 5.25608 3.72599 10.3866 1.50852C14.432 -0.239952 18.5923 -0.470183 22.7068 0.826712C25.749 1.78559 27.9107 3.14751 30.2091 5.55346C33.351 8.84229 34.9452 12.8611 34.9452 17.4928C34.9452 22.1245 33.351 26.1433 30.2091 29.4321C27.9152 31.8334 25.7481 33.2003 22.7246 34.1533C20.0891 34.984 17.5655 35.1985 14.8999 34.8186H14.8999ZM21.4681 33.8965C26.1686 32.8062 30.4413 29.3973 32.6873 24.9457C32.9491 24.4268 33.4034 23.2806 33.6969 22.3985C34.2013 20.883 34.2306 20.613 34.2306 17.4928C34.2306 14.3726 34.2013 14.1026 33.6969 12.5871C32.0901 7.75846 28.9168 4.16933 24.4166 2.09072C20.5414 0.300818 15.626 0.137895 11.5027 1.66268C6.62139 3.46774 2.57236 7.91074 1.07932 13.1002C0.72332 14.3376 0.656957 15.0278 0.656957 17.4928C0.656957 19.9578 0.72332 20.648 1.07932 21.8854C2.03372 25.2027 4.29078 28.6297 6.82846 30.6147C11.1779 34.0169 16.1468 35.1308 21.4681 33.8965ZM15.7143 30.3332C12.4223 29.8131 9.12291 27.9715 8.39542 26.248C8.25974 25.9266 7.846 25.4765 7.47601 25.2479C6.59624 24.7044 6.02932 23.7636 6.02932 22.8473C6.02932 22.271 5.90337 21.9954 5.44056 21.5587C4.8954 21.0443 4.85912 20.9323 4.95062 20.0459C5.01857 19.3878 4.96665 18.9755 4.78444 18.7264C4.14139 17.8472 4.78515 15.9782 6.06715 15.0024C8.06037 13.4852 11.9501 12.2775 18.6746 11.0877C19.8684 10.8765 21.0999 10.6285 21.4113 10.5366C22.5431 10.2025 21.2913 10.0398 17.6366 10.0459C14.5601 10.0511 13.8092 10.1122 12.352 10.4764C10.0683 11.0471 8.90168 11.4949 6.84017 12.5919C5.30505 13.4088 5.12062 13.4677 5.25382 13.0989C5.58523 12.1811 9.35913 10.339 12.5864 9.51956C14.0245 9.15444 14.7055 9.102 17.8253 9.11616C19.7976 9.12511 21.8272 9.22186 22.3355 9.33117C23.2 9.51705 23.29 9.49968 23.727 9.0628C23.984 8.80589 24.1201 8.52731 24.0295 8.44373C23.5929 8.04087 21.2062 7.64281 18.6516 7.54679C16.5229 7.46677 15.4444 7.51784 13.9352 7.77013C11.5374 8.17096 9.15161 8.84831 7.89439 9.48521C6.97858 9.94914 6.95662 9.9514 7.16623 9.55986C7.61875 8.71458 11.2211 7.43818 14.8807 6.82642C17.1915 6.44015 20.264 6.51871 22.4154 7.01907C23.1753 7.1958 23.8409 7.29656 23.8945 7.24298C24.0638 7.07375 23.0829 6.53584 21.6563 6.0155C20.3541 5.54056 20.0985 5.51381 16.976 5.5256C13.9995 5.53684 13.5192 5.58525 12.116 6.01541C11.2597 6.27795 10.559 6.46476 10.559 6.43056C10.559 6.27387 12.1038 5.6066 13.2979 5.24747C17.9861 3.83754 23.6824 4.88554 25.4197 7.47767C25.6575 7.83257 26.1269 8.28678 26.4627 8.48703C27.5312 9.12416 28.2895 9.97846 28.4165 10.6883C28.4827 11.0581 28.7803 11.6037 29.0778 11.9008C29.7749 12.5966 30.1243 13.6981 29.8253 14.2566C29.6463 14.5909 29.6804 14.7578 30.0215 15.2191C30.7615 16.2197 30.4271 17.4781 29.1151 18.6297C28.1683 19.4608 25.7441 20.5771 23.828 21.0644C22.5232 21.3963 16.1516 22.5741 15.5605 22.5927C15.4567 22.5959 15.5165 22.683 15.6934 22.7861C15.8703 22.8892 16.9099 23.0736 18.0037 23.1957C21.3364 23.5681 25.1925 22.944 28.7248 21.4607C29.4255 21.1664 29.9987 20.9962 29.9987 21.0823C29.9987 21.6358 27.1547 22.8495 24.2423 23.5389C20.7287 24.3707 17.6789 24.3695 14.2981 23.5353C13.1917 23.2623 12.6889 23.2209 12.1816 23.3609C11.1758 23.6385 11.2088 23.8415 12.3278 24.2601C16.7293 25.9064 21.8053 25.9545 27.1713 24.4007C28.9432 23.8877 29.1141 24.1557 27.4423 24.8256C22.6448 26.7481 16.4299 26.8738 11.8214 25.1416C10.2715 24.559 10.057 24.5202 9.80403 24.7764C9.55218 25.0314 9.56143 25.0931 9.88785 25.335C10.3938 25.7099 12.9908 26.6948 14.7053 27.162C15.8532 27.4748 16.7077 27.551 19.1464 27.558C22.0768 27.5664 23.0069 27.4457 26.224 26.6397C26.6832 26.5246 26.6858 26.5296 26.3218 26.8241C25.8684 27.191 23.542 27.9425 21.8748 28.2607C20.1982 28.5807 16.7757 28.5829 15.183 28.2649C13.9043 28.0097 12.2133 27.4802 10.6533 26.8467L9.8984 26.5401L10.559 27.1234C11.6251 28.0648 14.1409 29.187 15.8879 29.5003C17.6087 29.8089 20.1467 29.7185 22.0268 29.2816C22.6208 29.1435 23.1318 29.0556 23.1623 29.0861C23.2445 29.1682 21.3394 29.898 20.4676 30.1183C19.3641 30.3973 16.8417 30.5112 15.7143 30.3331V30.3332ZM8.48289 23.9034C8.48289 23.6835 7.72995 23.277 7.58711 23.4198C7.42955 23.5773 8.12534 24.2952 8.31937 24.1754C8.4093 24.1198 8.48289 23.9974 8.48289 23.9034ZM10.1815 22.6875L10.6533 22.4238L9.75909 22.026C9.04542 21.7084 8.7849 21.6709 8.46896 21.8399C8.03358 22.0728 8.05366 22.1175 8.81174 22.6034C9.44997 23.0124 9.58516 23.0207 10.1815 22.6875ZM13.0924 21.6493C13.3574 21.5485 15.5924 21.085 18.059 20.6192C24.649 19.3746 27.4871 18.4401 28.4697 17.1913C28.8473 16.7114 28.98 16.1599 28.7686 15.9486C28.7149 15.8949 27.9293 16.2186 27.0228 16.668C25.0572 17.6425 22.296 18.3691 17.1406 19.2685C13.2869 19.9407 10.3702 20.6376 10.3702 20.8862C10.3702 21.0378 12.0014 21.7908 12.3869 21.8172C12.5099 21.8256 12.8273 21.75 13.0924 21.6493ZM7.16174 20.8845C7.16174 20.6646 6.4088 20.2581 6.26596 20.4009C6.1084 20.5584 6.80419 21.2764 6.99822 21.1565C7.08816 21.1009 7.16174 20.9785 7.16174 20.8845ZM9.24797 19.5631C10.3684 18.9917 13.0778 18.3235 16.8816 17.6806C18.7501 17.3648 21.3405 16.8478 22.6381 16.5317C25.1122 15.929 27.6148 14.9279 27.423 14.6176C27.361 14.5174 27.0297 14.3182 26.6868 14.175C26.1113 13.9346 25.9129 13.9633 24.1147 14.5478C23.043 14.8961 21.3594 15.3251 20.3732 15.5011C15.8559 16.3073 12.6001 16.9849 11.1252 17.4257C9.49387 17.9133 7.35047 18.9271 7.35047 19.2112C7.35047 19.3352 8.20786 19.9056 8.44322 19.9381C8.47331 19.9422 8.83545 19.7735 9.24797 19.5631ZM8.268 16.7958C9.85531 16.0916 12.1687 15.4806 15.9933 14.7553C21.057 13.7951 23.2769 13.3203 23.4499 13.1603C23.6522 12.9733 21.6766 12.5871 20.5176 12.5871C18.9458 12.5871 15.5054 13.1584 12.5009 13.9183C8.12288 15.0255 5.84059 16.2485 5.84059 17.4871C5.84059 18.2389 6.01591 18.2926 6.66891 17.7409C6.99187 17.468 7.71146 17.0427 8.268 16.7958ZM28.4136 13.0676C28.2799 12.5354 27.9003 12.4424 27.5557 12.8575C27.3736 13.0768 27.4316 13.1806 27.8628 13.4069C28.4992 13.7409 28.5714 13.6964 28.4136 13.0676ZM25.9933 12.1047C26.224 11.9432 26.4128 11.7387 26.4128 11.6504C26.4128 11.562 25.9025 11.3174 25.2788 11.1069L24.1448 10.724L23.3733 11.1621L22.6018 11.6002L23.7995 11.9794C25.3035 12.4556 25.478 12.4656 25.9933 12.1047ZM26.7902 10.3583C26.7902 10.2739 26.5385 9.9638 26.2309 9.66913C25.7572 9.21547 25.6261 9.17103 25.3753 9.37913C24.9615 9.72244 25.1019 9.97535 25.858 10.2484C26.6579 10.5374 26.7902 10.553 26.7902 10.3583ZM48.2528 25.2114C47.1851 24.9601 46.5615 24.5833 45.778 23.7163C44.4843 22.2848 43.878 20.2437 43.9013 17.3985C43.9334 13.4852 45.5242 10.9394 48.4872 10.0597C49.0481 9.89318 49.8584 9.75693 50.2878 9.75693C51.1655 9.75693 52.9061 10.2193 53.5317 10.6187L53.9445 10.8822L53.4577 12.3479C53.19 13.154 52.944 13.8454 52.9112 13.8843C52.8783 13.9233 52.489 13.8102 52.0461 13.633C51.6032 13.4558 50.7944 13.3004 50.2488 13.2877C49.3926 13.2676 49.178 13.34 48.6802 13.8168C47.8452 14.6165 47.4805 16.0401 47.5952 18.0518C47.7378 20.5521 48.4943 21.7435 49.8532 21.6079C50.5519 21.5382 51.0641 20.9081 51.2427 19.8985L51.3679 19.1909H50.4032H49.4385V17.7758V16.3607H52.0119H54.5853L54.4834 18.6721C54.3586 21.5011 53.9107 22.9667 52.8312 24.0787C51.7266 25.2166 50.0436 25.633 48.2528 25.2114ZM66.8022 25.0906C66.8022 25.0109 67.725 22.38 68.8529 19.2442L70.9035 13.5428L68.9 13.4895L66.8965 13.4362L66.8423 11.6909L66.788 9.94561H71.136C73.5274 9.94561 75.4831 10.0093 75.482 10.0871C75.4808 10.165 74.6361 12.7758 73.6049 15.889L71.7298 21.5494L73.8026 21.6028L75.8755 21.6562L75.8213 23.3953L75.7671 25.1343L71.2846 25.1849C68.8193 25.2127 66.8022 25.1703 66.8022 25.0906L66.8022 25.0906ZM102.126 24.7367C100.859 24.1056 99.9456 22.915 99.4016 21.186C98.8005 19.2757 98.8005 15.7099 99.4016 13.7996C100.252 11.0982 101.931 9.75325 104.445 9.76108C108.09 9.77242 110.023 12.4517 110.023 17.4928C110.023 22.5339 108.09 25.2132 104.445 25.2245C103.383 25.2278 102.914 25.1291 102.126 24.7367ZM105.481 21.1187C106.721 19.879 106.721 15.1066 105.481 13.8669C104.833 13.2187 104.117 13.1905 103.518 13.7894C102.894 14.4139 102.664 15.4089 102.664 17.4928C102.664 19.5767 102.894 20.5717 103.518 21.1962C104.117 21.7951 104.833 21.7669 105.481 21.1187ZM136.06 24.9999C136.055 24.8663 136.712 21.4244 137.52 17.3513L138.987 9.94561H141.195C143.135 9.94561 143.415 9.98577 143.502 10.2758C143.598 10.5991 146.449 24.9819 146.449 25.1456C146.449 25.1913 145.649 25.2287 144.673 25.2287H142.897L142.672 23.8997L142.448 22.5708L141.193 22.6261L139.937 22.6815L139.748 23.9079L139.559 25.1343L137.814 25.1886C136.491 25.2297 136.066 25.184 136.06 24.9999V24.9999ZM141.86 18.7664C141.806 18.5329 141.653 17.5583 141.521 16.6006C141.39 15.643 141.25 14.8908 141.212 14.9291C141.13 15.0114 140.606 18.3814 140.601 18.8607C140.599 19.1148 140.755 19.1909 141.279 19.1909C141.889 19.1909 141.949 19.1466 141.86 18.7664ZM55.281 24.8985C55.2763 24.8207 55.9333 21.4244 56.7407 17.3513L58.2086 9.94561H60.4257C62.569 9.94561 62.6462 9.95974 62.7443 10.3701C62.8542 10.83 65.6698 24.8963 65.6698 24.9857C65.6698 25.0156 64.8697 25.04 63.8918 25.04H62.1138L62.0145 24.5211C61.9599 24.2357 61.8602 23.6377 61.7928 23.1922L61.6704 22.3821L60.4144 22.4374L59.1584 22.4928L58.9948 23.7664L58.8311 25.04H57.0602C56.0862 25.04 55.2856 24.9763 55.281 24.8985V24.8985ZM61.0127 19.0494C61.0587 18.9716 60.9496 17.9739 60.7702 16.8324C60.418 14.5909 60.4235 14.5875 60.009 17.3041C59.7287 19.141 59.7383 19.1909 60.374 19.1909C60.6793 19.1909 60.9667 19.1272 61.0127 19.0494ZM77.5601 17.4928V9.94561L80.4383 9.94974C83.7717 9.95452 84.4134 10.1421 85.5208 11.4354C86.867 13.0078 87.1453 15.3516 86.2364 17.4637C85.485 19.2101 83.9556 20.1343 81.8174 20.1343H80.9573V22.5871V25.04H79.2587H77.5601V17.4928V17.4928ZM82.7366 16.4419C83.1359 16.0426 83.2908 15.3473 83.16 14.5412C83.0042 13.5819 82.7287 13.3418 81.7835 13.3418H80.9573V15.04V16.7381H81.6988C82.1209 16.7381 82.5679 16.6105 82.7366 16.4419ZM88.1293 17.4928V9.94561H90.8912C94.1692 9.94561 94.926 10.1293 95.9795 11.181C97.8291 13.0272 97.8347 16.1865 95.9922 18.3678L95.4922 18.9597L96.9066 21.9229C97.6845 23.5526 98.321 24.9207 98.321 24.963C98.321 25.0054 97.4366 25.04 96.3558 25.04H94.3905L93.9075 23.7664C93.6419 23.0659 93.2192 21.9409 92.9683 21.2664C92.6265 20.3477 92.4121 20.0249 92.1137 19.9797C91.7249 19.9209 91.7152 19.9812 91.7152 22.4797V25.04H89.9222H88.1293V17.4928H88.1293ZM93.4139 16.3607C93.686 16.0887 93.7914 15.7318 93.7914 15.082C93.7914 13.8412 93.4092 13.3418 92.4595 13.3418H91.7153V15.04V16.7381H92.3758C92.7848 16.7381 93.1802 16.5943 93.4139 16.3607ZM111.91 17.4928V9.94561H113.402H114.894L116.136 11.6437C116.819 12.5777 117.443 13.3403 117.522 13.3385C117.602 13.3367 118.218 12.5725 118.892 11.6404L120.118 9.94561H121.676H123.234V17.4928V25.04H121.444H119.655L119.604 20.4948L119.554 15.9497L118.533 17.2235L117.512 18.4974L116.929 17.7631C116.608 17.3592 116.114 16.7723 115.832 16.4589L115.318 15.889L115.313 20.4645L115.308 25.04H113.609H111.91V17.4928H111.91ZM125.499 17.4804V9.92077L128.66 9.98037C131.318 10.0305 131.938 10.0976 132.551 10.4021C134.646 11.4415 135.169 14.4394 133.598 16.4049L133.035 17.1094L133.871 17.9143C136.03 19.9926 135.275 23.7721 132.505 24.749C131.89 24.9658 130.892 25.04 128.589 25.04H125.499V17.4804V17.4804ZM130.972 21.2664C131.204 21.0352 131.35 20.6375 131.35 20.2394C131.35 19.4138 130.802 19.0022 129.703 19.0022H128.896V20.323V21.6438H129.745C130.343 21.6438 130.707 21.5319 130.972 21.2664ZM130.553 15.501C130.834 15.3044 130.972 15.013 130.972 14.6196C130.972 13.79 130.499 13.3418 129.622 13.3418H128.896V14.5683V15.7947H129.515C129.855 15.7947 130.322 15.6625 130.553 15.501ZM147.77 17.4928V9.94561H149.279H150.787L152.477 13.2947L154.167 16.6437L154.177 13.2947L154.187 9.94561H155.885H157.584V17.4928V25.04H156.12H154.656L153.053 21.6511L151.45 18.2622L151.399 21.6511L151.347 25.04H149.558H147.77V17.4928H147.77ZM159.849 17.4928V9.94561H161.547H163.246V12.6815C163.246 15.2576 163.267 15.4173 163.61 15.4173C163.992 15.4173 164.01 15.3769 165.339 11.6909L165.968 9.94561H167.815C168.832 9.94561 169.663 9.97547 169.663 10.012C169.663 10.0485 169.068 11.6629 168.341 13.5996L167.02 17.1208L168.459 20.8446C169.25 22.8926 169.94 24.6774 169.992 24.8108C170.066 25.001 169.648 25.0416 168.05 24.9994L166.014 24.9457L165.04 22.0211C164.211 19.532 164.005 19.0876 163.656 19.0363C163.25 18.9765 163.246 19.0035 163.246 22.008V25.04H161.547H159.849V17.4928V17.4928Z" fill="white"/>
</svg>
