<svg width="68" height="23" viewBox="0 0 68 23" fill="none" xmlns="http://www.w3.org/2000/svg">
<path fill-rule="evenodd" clip-rule="evenodd" d="M4.62005 0L3.46432 2.9852H19.4802L20.6359 0H4.62005ZM2.88609 4.47712L1.73036 7.46164H17.7462L18.902 4.47712H2.88609ZM1.15573 8.95424L0 11.9388H16.0159L17.1709 8.95424H1.15573Z" fill="white"/>
<mask id="mask0" mask-type="alpha" maskUnits="userSpaceOnUse" x="24" y="4" width="44" height="19">
<path d="M24.0293 22.8206H67.8709V4.53442H24.0293V22.8206Z" fill="white"/>
</mask>
<g mask="url(#mask0)">
<path fill-rule="evenodd" clip-rule="evenodd" d="M34.0491 13.0763V13.1392C34.781 13.3926 35.4802 13.8355 35.8465 14.12C36.9783 15.006 37.4779 16.1764 37.4779 17.695C37.4779 20.195 36.0796 21.9981 33.7826 22.5677C33.0834 22.7574 32.3515 22.8211 30.9859 22.8211H24.0293V4.53442H30.1877C31.4528 4.53442 32.318 4.59741 33.0834 4.78706C35.3142 5.3567 36.7788 6.81229 36.7788 9.12131C36.7788 10.3554 36.3126 11.3999 35.5472 12.0955C35.2144 12.4118 34.7483 12.7918 34.0491 13.0763ZM27.8907 15.006V19.815H30.5541C31.3523 19.815 32.0849 19.7521 32.618 19.2772C33.1504 18.8024 33.3835 18.2016 33.3835 17.4105C33.3835 16.8097 33.2167 16.2401 32.8839 15.8289C32.318 15.1645 31.6188 15.006 30.4208 15.006H27.8907ZM27.8572 11.8422H30.0209C30.6866 11.8422 31.0194 11.8422 31.3523 11.7473C32.2517 11.494 32.8176 10.7354 32.8176 9.69095C32.8176 8.45754 32.2182 7.91904 31.3523 7.66641C30.9859 7.57158 30.6203 7.53974 29.8877 7.53974H27.8572V11.8422ZM43.27 22.8211V7.60273H37.711V4.53442H53.1573L52.059 7.60273H47.1314V22.8211H43.27ZM54.3553 22.8211V4.53442H66.8724L65.7742 7.60273H58.1839V11.6525H61.2799C63.7765 11.6525 65.075 12.2221 65.9737 12.9496C66.6729 13.5192 67.8709 14.7845 67.8709 17.2845C67.8709 19.7521 66.6394 21.1121 65.6074 21.8084C64.4094 22.5989 63.1443 22.8211 60.5807 22.8211H54.3553ZM58.1839 19.7521H61.0803C62.1786 19.7521 62.8443 19.4987 63.3104 18.9291C63.5434 18.6446 63.8763 18.138 63.8763 17.189C63.8763 16.2401 63.5434 15.5756 62.8778 15.1008C62.4787 14.8163 61.9456 14.6585 61.0468 14.6585H58.1839V19.7521Z" fill="white"/>
</g>
</svg>
