<svg width="20" height="20" viewBox="0 0 20 20" fill="none" xmlns="http://www.w3.org/2000/svg">
<path d="M20 10C20 15.5228 15.5228 20 10 20C4.47715 20 0 15.5228 0 10C0 4.47715 4.47715 0 10 0C15.5228 0 20 4.47715 20 10ZM5.04299 10C5.04299 12.7377 7.26232 14.957 10 14.957C12.7377 14.957 14.957 12.7377 14.957 10C14.957 7.26232 12.7377 5.04299 10 5.04299C7.26232 5.04299 5.04299 7.26232 5.04299 10Z" fill="#C4C4C4"/>
<path d="M20 10C20 15.5228 15.5228 20 10 20C4.47715 20 0 15.5228 0 10C0 4.47715 4.47715 0 10 0C15.5228 0 20 4.47715 20 10ZM5.04299 10C5.04299 12.7377 7.26232 14.957 10 14.957C12.7377 14.957 14.957 12.7377 14.957 10C14.957 7.26232 12.7377 5.04299 10 5.04299C7.26232 5.04299 5.04299 7.26232 5.04299 10Z" fill="url(#paint0_linear)"/>
<defs>
<linearGradient id="paint0_linear" x1="-2.8266" y1="10" x2="20" y2="10" gradientUnits="userSpaceOnUse">
<stop/>
<stop offset="1" stop-color="#6579E1"/>
</linearGradient>
</defs>
</svg>
