<svg width="40" height="37" viewBox="0 0 40 37" fill="none" xmlns="http://www.w3.org/2000/svg">
<path fill-rule="evenodd" clip-rule="evenodd" d="M25.7632 0.237159L25.7722 0.258761L27.9835 6.54523C32.6936 9.33419 35.8544 14.4862 35.8544 20.38C35.8544 20.4672 35.8537 20.5542 35.8524 20.6411L39.1007 21.4903C39.1707 21.5086 39.2254 21.5636 39.2435 21.634C39.2692 21.7335 39.216 21.835 39.1228 21.8713L39.1007 21.8785L35.6782 22.7737C35.6045 23.269 35.5083 23.7569 35.3908 24.2362L38.6872 26.1947C38.7495 26.2317 38.7869 26.2996 38.7851 26.3724C38.7826 26.4751 38.7036 26.558 38.604 26.5671L38.5808 26.5678L34.6652 26.47C34.4917 26.8953 34.3004 27.3115 34.0924 27.7175L36.5569 30.2463C36.6075 30.2981 36.6262 30.3736 36.6057 30.4433C36.5767 30.5419 36.4791 30.6013 36.3806 30.5843L36.358 30.5789L32.9757 29.5764C30.0908 33.7176 25.3104 36.425 19.9011 36.425C14.5125 36.425 9.74786 33.7388 6.85916 29.6252L3.64203 30.5789C3.53637 30.6103 3.42544 30.5496 3.39429 30.4433C3.37383 30.3736 3.39251 30.2981 3.44314 30.2463L5.77744 27.8509C5.54337 27.4043 5.32963 26.9453 5.13747 26.4751L1.41924 26.5678C1.3091 26.5705 1.21759 26.4831 1.21484 26.3724C1.21304 26.2996 1.25052 26.2317 1.31278 26.1947L4.43553 24.3394C4.30179 23.8095 4.19426 23.2689 4.11444 22.7193L0.899321 21.8785C0.79269 21.8507 0.728739 21.7411 0.756473 21.634C0.774664 21.5636 0.82932 21.5086 0.899321 21.4903L3.94907 20.6929C3.94709 20.5889 3.9461 20.4845 3.9461 20.38C3.9461 14.3825 7.21939 9.1532 12.0678 6.40028L14.2277 0.258761C14.2478 0.201643 14.2925 0.156722 14.3493 0.136523C14.4458 0.102244 14.5509 0.146973 14.5949 0.237159L14.6039 0.258761L16.1914 4.77261C17.3819 4.48757 18.6239 4.33667 19.9011 4.33667C21.2435 4.33667 22.5472 4.50343 23.7928 4.81748L25.396 0.258761C25.4161 0.201643 25.4608 0.156722 25.5177 0.136523C25.6141 0.102244 25.7193 0.146973 25.7632 0.237159ZM19.9014 10.9548C14.7229 10.9548 10.5247 15.1753 10.5247 20.3808C10.5247 25.5878 14.7229 29.8069 19.9014 29.8069C25.0792 29.8069 29.2759 25.5878 29.2759 20.3808C29.2759 15.1753 25.0792 10.9548 19.9014 10.9548ZM19.9002 14.9659C20.1071 14.9659 20.2852 15.1132 20.325 15.3172L21.2638 20.116C21.304 20.3222 21.3036 20.5344 21.2627 20.7404L20.3263 25.4447C20.2856 25.6489 20.1072 25.7958 19.9002 25.7958C19.6932 25.7958 19.5149 25.6489 19.4745 25.4447L18.5374 20.7127C18.4966 20.5066 18.4964 20.2945 18.537 20.0884L19.475 15.3172C19.5152 15.113 19.6932 14.9659 19.9002 14.9659Z" fill="white"/>
</svg>
