							<svg width="39" height="39" viewBox="0 0 39 39" fill="none" xmlns="http://www.w3.org/2000/svg">
							<g opacity="0.4">
							<path fill-rule="evenodd" clip-rule="evenodd" d="M29.6761 24.1316C28.4897 24.1316 27.5842 23.7512 26.9592 22.9905C26.3346 22.2299 26.0223 21.148 26.0223 19.7441C26.0223 19.047 26.1173 18.4265 26.3072 17.8831C26.4976 17.3399 26.7625 16.8804 27.1021 16.5043C27.4416 16.1288 27.8443 15.8434 28.3108 15.6486C28.7774 15.454 29.2866 15.3566 29.8391 15.3566C30.1377 15.3566 30.4071 15.3817 30.6472 15.4313C30.8871 15.4813 31.0976 15.5381 31.2789 15.6012C31.46 15.6646 31.6116 15.7327 31.7338 15.805C31.8562 15.8775 31.949 15.9317 32.0124 15.9679L31.5778 17.2992C31.3694 17.1633 31.118 17.0478 30.8239 16.9528C30.5293 16.8577 30.1923 16.8101 29.8118 16.8101C29.5491 16.8101 29.2935 16.8577 29.0444 16.9528C28.7953 17.0478 28.5735 17.2066 28.379 17.4281C28.1841 17.6502 28.0256 17.9468 27.9035 18.3178C27.7813 18.6892 27.7201 19.1513 27.7201 19.7032C27.7201 20.6634 27.8852 21.3993 28.2158 21.9107C28.5464 22.4224 29.0872 22.6781 29.8391 22.6781C30.2738 22.6781 30.6338 22.6284 30.919 22.5288C31.2041 22.4294 31.4328 22.3296 31.605 22.2299L32.0259 23.5475C31.7906 23.6925 31.4713 23.8261 31.0684 23.9481C30.6653 24.0703 30.2011 24.1316 29.6761 24.1316ZM23.5465 19.5826C23.5465 20.0065 23.4173 20.329 23.1586 20.5506C22.9002 20.7719 22.6032 20.8827 22.2683 20.8827C22.0958 20.8827 21.9329 20.8539 21.7799 20.7959C21.6266 20.7382 21.4901 20.6539 21.3705 20.5433C21.2506 20.4326 21.1552 20.2977 21.0833 20.1386C21.0114 19.9799 20.9755 19.7947 20.9755 19.5826C20.9755 19.3804 21.0114 19.1999 21.0833 19.0411C21.1552 18.8821 21.2506 18.7499 21.3705 18.6436C21.4901 18.5378 21.6266 18.4558 21.7799 18.3981C21.9329 18.3404 22.0958 18.3116 22.2683 18.3116C22.6032 18.3116 22.9002 18.4224 23.1586 18.6436C23.4173 18.8654 23.5465 19.1783 23.5465 19.5826ZM19.1289 15.5469V16.9322H16.9148V23.9548H15.2305V16.9322H13.0161V15.5469H19.1289ZM12.0549 21.1431C12.0549 21.5508 12.0027 21.9357 11.8988 22.2979C11.7945 22.6601 11.6225 22.9768 11.3827 23.2486C11.1426 23.5203 10.8325 23.7354 10.4521 23.8938C10.0717 24.0522 9.60995 24.1315 9.06656 24.1315C8.49619 24.1315 8.0207 24.059 7.64045 23.9142C7.26002 23.7695 6.93845 23.5928 6.6759 23.3844L7.31435 22.053C7.54052 22.1982 7.79192 22.3383 8.06823 22.4742C8.34437 22.6101 8.62729 22.6781 8.91735 22.6781C9.35192 22.6781 9.70258 22.5626 9.96983 22.3318C10.2369 22.1007 10.3706 21.6729 10.3706 21.0481V16.9322H8.3522V15.5469H12.0549V21.1431ZM0 29.25V9.75H39V29.25H0ZM0.974965 28.2751H38.0251V10.7251H0.974965V28.2751Z" fill="white"/>
							</g>
							</svg>