<svg width="141" height="31" viewBox="0 0 141 31" fill="none" xmlns="http://www.w3.org/2000/svg">
<path d="M19.1968 25.5166L18.0991 22.0985C21.0994 21.1727 23.0752 18.5379 23.0752 15.4045C23.0752 12.3424 21.0994 9.70755 18.1723 8.71058L19.3431 5.36361C23.7338 6.78786 26.734 10.8469 26.734 15.4045C26.734 20.1045 23.7338 24.0924 19.1968 25.5166ZM13.7085 22.0273L12.5377 25.3742C8.1471 23.95 5.22003 19.8909 5.22003 15.4045C5.22003 10.8469 8.22028 6.78786 12.6109 5.36361L13.7817 8.71058C10.8546 9.63634 8.87887 12.3424 8.87887 15.4045C8.87887 18.3954 10.8546 21.1015 13.7085 22.0273ZM15.977 0.0227051C7.1958 0.0227051 0.0976562 6.93028 0.0976562 15.4757C0.0976562 24.0212 7.1958 30.9288 15.977 30.9288C24.7582 30.9288 31.8564 24.0212 31.8564 15.4757C31.8564 6.93028 24.7582 0.0227051 15.977 0.0227051Z" fill="white"/>
<path d="M133.865 8.35449C129.548 8.35449 126.621 11.4166 126.621 15.6893C126.621 18.4666 127.791 20.7454 130.133 21.8848C131.231 22.3833 132.475 22.6681 134.231 22.6681C136.06 22.6681 138.329 22.1696 140.158 20.3181L138.402 18.253C137.158 19.4636 135.768 19.8909 134.45 19.8909C133.206 19.8909 132.255 19.6772 131.45 19.1787C130.499 18.609 129.84 17.5409 129.767 16.4015H140.744C140.963 11.8439 138.622 8.35449 133.865 8.35449ZM129.694 13.909C129.987 12.4136 131.304 10.8469 133.646 10.8469C135.914 10.8469 137.304 12.2712 137.451 13.909H129.694ZM55.2732 11.4166H60.0297V22.3121H63.1031V11.4166H67.8596V8.63934H55.2732V11.4166ZM83.0803 8.63934H79.1288L74.4455 13.9803H73.2747V8.63934H70.2012V22.3121H73.2747V16.8999H74.5187L79.202 22.3121H83.1535L76.9335 15.2621L83.0803 8.63934ZM47.2237 8.35449C42.9795 8.35449 39.6865 11.4166 39.6865 15.4757C39.6865 19.5348 42.9063 22.6681 47.2237 22.6681C51.468 22.6681 54.7609 19.606 54.7609 15.4757C54.7609 11.3454 51.468 8.35449 47.2237 8.35449ZM47.2237 19.8909C44.6625 19.8909 42.8331 18.0393 42.8331 15.4757C42.8331 12.9121 44.7357 11.0606 47.2237 11.0606C49.7117 11.0606 51.6143 12.9121 51.6143 15.4757C51.6143 18.0393 49.7117 19.8909 47.2237 19.8909ZM120.913 8.63934H123.986V22.2409H120.913V8.63934ZM105.985 11.4166H110.741V22.3121H113.741V11.4166H118.498V8.63934H105.985V11.4166ZM100.57 8.63934H103.643V22.2409H100.57V8.63934ZM97.3498 13.3393C97.3498 10.2772 94.7886 8.63934 91.642 8.63934H85.2025V22.2409H88.2027V18.1818H90.0321L93.6178 22.3121H97.423L93.4714 17.9681C95.7399 17.3984 97.3498 15.8318 97.3498 13.3393ZM88.2759 11.203H91.5688C93.1787 11.203 94.3496 11.8439 94.3496 13.4106C94.3496 14.9772 93.1787 15.6893 91.5688 15.6893H88.2759V11.203Z" fill="white"/>
</svg>
