<svg width="160" height="30" viewBox="0 0 160 30" fill="none" xmlns="http://www.w3.org/2000/svg">
<path d="M15.515 0.34082C6.93527 0.34082 0 6.95446 0 15.1363C0 23.3181 6.93527 29.9317 15.515 29.9317C24.0947 29.9317 31.03 23.3181 31.03 15.1363C31.03 6.95446 24.0947 0.34082 15.515 0.34082ZM13.37 21.409L12.2261 24.6135C7.93623 23.2499 5.07633 19.3635 5.07633 14.9999C5.07633 10.6363 7.93623 6.81809 12.2976 5.38627L13.4415 8.59082C10.5816 9.47718 8.72271 12.0681 8.72271 14.9317C8.57971 17.9317 10.5101 20.5226 13.37 21.409ZM18.6609 24.6817L17.5884 21.409C20.5198 20.5226 22.4502 17.9317 22.4502 14.9999C22.4502 12.0681 20.5198 9.54537 17.6599 8.659L18.8039 5.38627C23.1652 6.74991 26.0966 10.6363 26.0966 14.9999C26.0966 19.4999 23.0937 23.3863 18.6609 24.6817Z" fill="white"/>
<path d="M157.58 17.7955L159.296 19.7727C157.509 21.5455 155.292 22.0227 153.505 22.0227C151.789 22.0227 150.573 21.75 149.501 21.2727C147.213 20.1818 146.069 18 146.069 15.3409C146.069 11.3182 148.929 8.31818 153.147 8.31818C157.866 8.31818 160.154 11.6591 159.797 16.0227H149.072C149.143 17.1136 149.787 18.1364 150.716 18.6818C151.503 19.1591 152.432 19.3636 153.648 19.3636C155.006 19.3636 156.365 18.9545 157.58 17.7955ZM149.143 13.6364H156.722C156.508 12.0682 155.149 10.7045 153.004 10.7045C150.788 10.7045 149.429 12.2045 149.143 13.6364ZM77.1454 21.6136H81.0063L74.929 14.8636L80.9348 8.52273H77.1454L72.5695 13.5682H71.2111V8.52273H68.2797V21.5455H71.2111V16.3636H72.5695L77.1454 21.6136ZM89.729 10.9091C87.2265 10.9091 85.5821 12.75 85.5821 15.0682C85.5821 17.3864 87.2265 19.2273 89.729 19.2273C92.2314 19.2273 93.8043 17.4545 93.8043 15.0682C93.8758 12.8182 92.3029 10.9091 89.729 10.9091ZM90.2294 8.25C94.0903 8.25 96.9502 11.1136 96.9502 15.0682C96.9502 18.9545 94.1618 21.9545 90.2294 21.9545C88.3705 21.9545 86.8691 21.3409 85.7966 20.25V27.0682H82.7937V8.59091H85.7251V10.1591C86.8691 8.86364 88.3705 8.25 90.2294 8.25ZM129.196 8.59091H116.97V11.1818H121.617V21.6136H124.62V11.1818H129.267V8.59091H129.196ZM66.2063 8.59091H53.9087V11.1818H58.556V21.6136H61.5589V11.1818H66.2063V8.59091ZM50.3338 15.1364C50.3338 12.6818 48.5464 10.9091 46.0439 10.9091C43.613 10.9091 41.7541 12.6818 41.7541 15.1364C41.7541 17.5909 43.5415 19.3636 46.0439 19.3636C48.4749 19.3636 50.3338 17.5909 50.3338 15.1364ZM38.6797 15.1364C38.6797 11.25 41.8256 8.31818 46.0439 8.31818C50.1908 8.31818 53.4082 11.25 53.4082 15.1364C53.4082 19.0227 50.2623 22.0227 46.0439 22.0227C41.8971 21.9545 38.6797 19.0227 38.6797 15.1364ZM143.71 8.59091V21.6136H140.778V13.2273L133.628 21.6136H131.269V8.59091H134.2V16.9773L141.35 8.59091H143.71ZM114.896 21.6136H111.965V8.59091H114.896V21.6136ZM107.317 17.1818C107.317 16.0227 106.459 15.2045 105.315 15.2045H102.313V19.2273H105.315C106.459 19.2273 107.317 18.3409 107.317 17.1818ZM110.249 17.1818C110.249 19.7727 108.247 21.6136 105.387 21.6136H99.3811V8.59091H102.313V12.8182H105.673C108.533 12.8182 110.249 14.5909 110.249 17.1818Z" fill="white"/>
</svg>
