<svg width="64" height="23" viewBox="0 0 64 23" fill="none" xmlns="http://www.w3.org/2000/svg">
<path fill-rule="evenodd" clip-rule="evenodd" d="M19.389 0H4.33183L3.23818 2.98632H18.2954L19.389 0ZM17.7482 4.50019H2.69169L1.59805 7.48651H16.6552L17.7482 4.50019V4.50019ZM16.1081 8.95828H1.05156L0 11.9446H15.0565L16.1081 8.95828V8.95828Z" fill="white"/>
<path fill-rule="evenodd" clip-rule="evenodd" d="M60.8043 13.1291V13.1909C61.4872 13.4394 62.1383 13.8738 62.4797 14.1529C63.5347 15.0218 64.0004 16.1698 64.0004 17.6592C64.0004 20.1099 62.697 21.879 60.5565 22.437C59.9048 22.6237 59.2219 22.6855 57.9497 22.6855H51.4652V4.75196H57.205C58.3841 4.75196 59.1913 4.81373 59.9048 4.99974C61.9835 5.55845 63.3487 6.9861 63.3487 9.25079C63.3487 10.4605 62.9142 11.4849 62.2007 12.1672C61.8905 12.4774 61.456 12.8501 60.8043 13.1291V13.1291ZM55.0645 15.0218V19.7379H57.5464C58.2911 19.7379 58.9741 19.6761 59.4703 19.2104C59.9666 18.7454 60.1838 18.1554 60.1838 17.3802C60.1838 16.7902 60.029 16.2315 59.7188 15.8283C59.1913 15.1773 58.5396 15.0218 57.4222 15.0218H55.0645ZM55.0333 11.9194H57.0502C57.6707 11.9194 57.9809 11.9194 58.2911 11.8257C59.1289 11.5779 59.6563 10.8332 59.6563 9.80949C59.6563 8.59907 59.0983 8.0716 58.2911 7.82381C57.9497 7.73013 57.6089 7.69958 56.9259 7.69958H55.0333V11.9194V11.9194ZM41.1329 22.6855V7.76136H35.9518V4.75195H50.3484L49.324 7.76136H44.7322V22.6855H41.1329V22.6855ZM25.9949 22.6855L20.3535 4.75195H24.3106L26.4999 12.5399C27.1313 14.8555 27.468 16.0761 27.8889 18.0129C28.2677 16.1603 28.5202 15.2764 29.2358 12.6661L31.4251 4.75195H35.2138L29.4883 22.6855H25.9949V22.6855Z" fill="white"/>
</svg>
